<mxfile host="app.diagrams.net" modified="2021-02-16T22:19:51.199Z" agent="5.0 (Windows NT 10.0; Win64; x64) AppleWebKit/537.36 (KHTML, like Gecko) Chrome/88.0.4324.150 Safari/537.36" etag="KusOu4GvTa7Y_CiNZiDk" version="14.3.1" type="github">
  <diagram id="gXo5za4NjH-X8Yjjh3fC" name="Page-1">
    <mxGraphModel dx="2062" dy="1154" grid="1" gridSize="10" guides="1" tooltips="1" connect="1" arrows="1" fold="1" page="1" pageScale="1" pageWidth="850" pageHeight="1100" math="0" shadow="0">
      <root>
        <mxCell id="0" />
        <mxCell id="1" parent="0" />
        <mxCell id="31Fr4xaebmxro3KnpHF_-1" value="げんき Study Resources" style="shape=umlFrame;whiteSpace=wrap;html=1;width=175;height=40;swimlaneFillColor=#ffffff;" parent="1" vertex="1">
          <mxGeometry x="239" y="210" width="372" height="360" as="geometry" />
        </mxCell>
        <mxCell id="31Fr4xaebmxro3KnpHF_-2" value="Workbook Exercises&amp;nbsp;" style="ellipse;whiteSpace=wrap;html=1;" parent="1" vertex="1">
          <mxGeometry x="355" y="270" width="140" height="70" as="geometry" />
        </mxCell>
        <mxCell id="31Fr4xaebmxro3KnpHF_-4" value="Vocab Quizzes" style="ellipse;whiteSpace=wrap;html=1;" parent="1" vertex="1">
          <mxGeometry x="355" y="470" width="140" height="70" as="geometry" />
        </mxCell>
        <mxCell id="31Fr4xaebmxro3KnpHF_-5" value="Avid To Be &lt;br&gt;Fluent Speaker" style="shape=umlActor;verticalLabelPosition=bottom;verticalAlign=top;html=1;" parent="1" vertex="1">
          <mxGeometry x="160" y="375" width="30" height="60" as="geometry" />
        </mxCell>
        <mxCell id="31Fr4xaebmxro3KnpHF_-6" value="Tourist" style="shape=umlActor;verticalLabelPosition=bottom;verticalAlign=top;html=1;" parent="1" vertex="1">
          <mxGeometry x="670" y="475" width="30" height="60" as="geometry" />
        </mxCell>
        <mxCell id="31Fr4xaebmxro3KnpHF_-8" value="Kanji Memory Games" style="ellipse;whiteSpace=wrap;html=1;" parent="1" vertex="1">
          <mxGeometry x="355" y="370" width="140" height="70" as="geometry" />
        </mxCell>
        <mxCell id="31Fr4xaebmxro3KnpHF_-19" value="" style="endArrow=none;html=1;edgeStyle=orthogonalEdgeStyle;entryX=0;entryY=0.5;entryDx=0;entryDy=0;" parent="1" source="31Fr4xaebmxro3KnpHF_-5" target="31Fr4xaebmxro3KnpHF_-2" edge="1">
          <mxGeometry relative="1" as="geometry">
            <mxPoint x="210" y="360" as="sourcePoint" />
            <mxPoint x="370" y="360" as="targetPoint" />
          </mxGeometry>
        </mxCell>
        <mxCell id="31Fr4xaebmxro3KnpHF_-20" value="" style="endArrow=none;html=1;edgeStyle=orthogonalEdgeStyle;entryX=0;entryY=0.5;entryDx=0;entryDy=0;" parent="1" source="31Fr4xaebmxro3KnpHF_-5" target="31Fr4xaebmxro3KnpHF_-8" edge="1">
          <mxGeometry relative="1" as="geometry">
            <mxPoint x="220" y="440" as="sourcePoint" />
            <mxPoint x="355" y="405" as="targetPoint" />
          </mxGeometry>
        </mxCell>
        <mxCell id="31Fr4xaebmxro3KnpHF_-21" value="" style="endArrow=none;html=1;edgeStyle=orthogonalEdgeStyle;entryX=0;entryY=0.5;entryDx=0;entryDy=0;" parent="1" source="31Fr4xaebmxro3KnpHF_-5" target="31Fr4xaebmxro3KnpHF_-4" edge="1">
          <mxGeometry relative="1" as="geometry">
            <mxPoint x="230" y="450" as="sourcePoint" />
            <mxPoint x="350" y="505" as="targetPoint" />
          </mxGeometry>
        </mxCell>
        <mxCell id="31Fr4xaebmxro3KnpHF_-22" value="" style="endArrow=none;html=1;edgeStyle=orthogonalEdgeStyle;" parent="1" source="31Fr4xaebmxro3KnpHF_-4" target="31Fr4xaebmxro3KnpHF_-6" edge="1">
          <mxGeometry relative="1" as="geometry">
            <mxPoint x="500" y="404.76" as="sourcePoint" />
            <mxPoint x="660" y="404.76" as="targetPoint" />
          </mxGeometry>
        </mxCell>
        <mxCell id="yDY8RB5fboglRvoid2Uz-1" value="Student" style="shape=umlActor;verticalLabelPosition=bottom;verticalAlign=top;html=1;" vertex="1" parent="1">
          <mxGeometry x="670" y="275" width="30" height="60" as="geometry" />
        </mxCell>
        <mxCell id="yDY8RB5fboglRvoid2Uz-3" value="" style="endArrow=none;html=1;edgeStyle=orthogonalEdgeStyle;exitX=1;exitY=0.5;exitDx=0;exitDy=0;" edge="1" parent="1" source="31Fr4xaebmxro3KnpHF_-2" target="yDY8RB5fboglRvoid2Uz-1">
          <mxGeometry relative="1" as="geometry">
            <mxPoint x="480" y="360" as="sourcePoint" />
            <mxPoint x="645" y="360" as="targetPoint" />
          </mxGeometry>
        </mxCell>
      </root>
    </mxGraphModel>
  </diagram>
</mxfile>
